/* XPM */
static char *result[] = {
/* columns rows colors chars-per-pixel */
"64 64 28 1 ",
"  c #66451E",
". c #3A3A50",
"X c #32675A",
"o c #46465E",
"O c #455C5B",
"+ c #4E6E61",
"@ c #E63F38",
"# c #E44E00",
"$ c #ED5C1E",
"% c #F27D2B",
"& c #94566F",
"* c #916662",
"= c #9C786B",
"- c #FC5C46",
"; c #64B63B",
": c #568D61",
"> c #ED931E",
", c #F89F39",
"< c #F2B22B",
"1 c #F8D239",
"2 c #9BC246",
"3 c #FFC27B",
"4 c #FFE57B",
"5 c #B99E86",
"6 c #A79796",
"7 c #D0BE9C",
"8 c #E0D0B2",
"9 c None",
/* pixels */
"9999999999999999999999999999999999999999999999999999999999999999",
"9999999999999999999999999999999999999999999999999999999999999999",
"9999999999999999999999999999999999999999999999999999999999999999",
"9999999999999999999999999999999999999999999999999999999999999999",
"9999999999999999999999999999999999999999999999999999999999999999",
"9999999999999999999999999999999999999999999999999999999999999999",
"999999999999999999999999999999......XXX9999999999999999999999999",
"999999999999999999999999999999......XXX9999999999999999999999999",
"999999999999999999999999999999......XXX9999999999999999999999999",
"999999999999999999999XXX......:::222...9999999999999999999999999",
"999999999999999999999XXX......:::222...9999999999999999999999999",
"999999999999999999999XXX......:::222...9999999999999999999999999",
"999999999999999999999...;;;:::+++...9999999999999999999999999999",
"999999999999999999999...;;;:::+++...9999999999999999999999999999",
"999999999999999999999...;;;:::+++...9999999999999999999999999999",
"999999999999999999999999...%%%;;;,,,...999......XXX9999999999999",
"999999999999999999999999...%%%;;;,,,...999......XXX9999999999999",
"999999999999999999999999...%%%;;;,,,...999......XXX9999999999999",
"999999999999999999999...%%%444,,,%%%%%%...:::222...9999999999999",
"999999999999999999999...%%%444,,,%%%%%%...:::222...9999999999999",
"999999999999999999999...%%%444,,,%%%%%%...:::222...9999999999999",
"999999999999999999XXX...$$$%%%%%%$$$...<<<;;;+++...9999999999999",
"999999999999999999XXX...$$$%%%%%%$$$...<<<;;;+++...9999999999999",
"999999999999999999XXX...$$$%%%%%%$$$...<<<;;;+++...9999999999999",
"999999999999999999...;;;.........XXX111444;;;444111...9999999999",
"999999999999999999...;;;.........XXX111444;;;444111...9999999999",
"999999999999999999...;;;.........XXX111444;;;444111...9999999999",
"999999999999999...###:::+++333%%%...<<<111444111<<<...9999999999",
"999999999999999...###:::+++333%%%...<<<111444111<<<...9999999999",
"999999999999999...###:::+++333%%%...<<<111444111<<<...9999999999",
"999999999999...===...---;;;%%%%%%%%%...111111<<<>>>...9999999999",
"999999999999...===...---;;;%%%%%%%%%...111111<<<>>>...9999999999",
"999999999999...===...---;;;%%%%%%%%%...111111<<<>>>...9999999999",
"999999999999...555...333---333%%%@@@...<<<<<<>>>......9999999999",
"999999999999...555...333---333%%%@@@...<<<<<<>>>......9999999999",
"999999999999...555...333---333%%%@@@...<<<<<<>>>......9999999999",
"999999999999...777...@@@------@@@@@@.........   ===...9999999999",
"999999999999...777...@@@------@@@@@@.........   ===...9999999999",
"999999999999...777...@@@------@@@@@@.........   ===...9999999999",
"999999999999...777888...@@@@@@@@@...$$$$$$   555===...9999999999",
"999999999999...777888...@@@@@@@@@...$$$$$$   555===...9999999999",
"999999999999...777888...@@@@@@@@@...$$$$$$   555===...9999999999",
"999999999999999   777888.........   ......777===   9999999999999",
"999999999999999   777888.........   ......777===   9999999999999",
"999999999999999   777888.........   ......777===   9999999999999",
"999999999999999...   777888888888777777555555   ...9999999999999",
"999999999999999...   777888888888777777555555   ...9999999999999",
"999999999999999...   777888888888777777555555   ...9999999999999",
"999999999999999...===***   ...      .........***...9999999999999",
"999999999999999...===***   ...      .........***...9999999999999",
"999999999999999...===***   ...      .........***...9999999999999",
"999999999999999666...======555555555555======...6669999999999999",
"999999999999999666...======555555555555======...6669999999999999",
"999999999999999666...======555555555555======...6669999999999999",
"999999999999999999666......      ............6669999999999999999",
"999999999999999999666......      ............6669999999999999999",
"999999999999999999666......      ............6669999999999999999",
"9999999999999999999999996666666666666666669999999999999999999999",
"9999999999999999999999996666666666666666669999999999999999999999",
"9999999999999999999999996666666666666666669999999999999999999999",
"9999999999999999999999999999999999999999999999999999999999999999",
"9999999999999999999999999999999999999999999999999999999999999999",
"9999999999999999999999999999999999999999999999999999999999999999",
"9999999999999999999999999999999999999999999999999999999999999999"
};
