/* XPM */
static char *result[] = {
/* columns rows colors chars-per-pixel */
"16 16 19 1 ",
"  c #170625",
". c #77271B",
"X c #993B1E",
"o c #A43E0E",
"O c #9A3C20",
"+ c #BA5125",
"@ c #C76429",
"# c #CF732D",
"$ c #C57F5D",
"% c #E88C2F",
"& c #E88D2F",
"* c #E88D31",
"= c #F3A83F",
"- c #F3A940",
"; c #F4A946",
": c #F5CA5C",
"> c #F9C17B",
", c #FFE18F",
"< c None",
/* pixels */
"<<<<<<<<<<<<<<<<",
"<<<<    <<<<<<<<",
"<<< .o.. <<<<<<<",
"<< O+*#O. <<<<<<",
"< .+#++#+ <<<<<<",
"< O@&@-@@O <<<<<",
"< +#=%:;%# <<<<<",
"< X@#+%-@+O <<<<",
"< .++@#%#@. <<<<",
"<< .OO+@@.>$ <<<",
"<<<   OO+O$>$  <",
"<<<<<<     $>,> ",
"<<<<<<<<<<< ,$ <",
"<<<<<<<<<<< $> <",
"<<<<<<<<<<<<  <<",
"<<<<<<<<<<<<<<<<"
};
