/* XPM */
static char *result[] = {
/* columns rows colors chars-per-pixel */
"26 26 6 1 ",
"  c #0F0F10",
". c #35231E",
"X c #573B33",
"o c #655144",
"O c #7F705A",
"+ c #B09977",
/* pixels */
"                          ",
"                          ",
". ....   ..... .... ..... ",
"...ooo. .o.oo...oo...ooo..",
"o.ooooo.oooooo.oooo.oooooo",
"o.ooooo.oXoooo.oooo.oooooo",
"oXooooo.oXooooXoooOXooXooO",
"OXooXoo.oXOOOOXoooOXoXoooO",
"+.XoooO.+OOOO+.OooOXOoooOO",
"+.XoooO.+OOOO+.OooOXOoooOO",
"+XXoooO.+OOOO+XOooOXOooooO",
"+XXoooO.+OOOO+XOooOXOooXoO",
"+XXoooOX+OOOO+XOoo+XOooXoO",
"+XooooOX+OOOO+Xooo+XOooXoO",
"+XooooOX+OOOO+Xooo+XOooXoO",
"OXooooOX+OOOO+XOoo+XOooooO",
"OXOOooOX+OOOO+XOoo+XOooooO",
"OXOOooOX+OOOOOXOooOXOooXoO",
"OXOOXoOXOooOOOXOooOXOooooO",
"OXOXooOXOooOoOXOooO.oooooO",
"OXOoXoOXOooXoOXOooO.oooXoO",
"OXOoXoO.oooXoOXOooO.oooXoO",
"O.ooXoo.oooooO.oooO.oooXoo",
"o.ooXoo.oXXXXo.oooo.oooooo",
"X.XX... ....XX.XXoo ...XX.",
"                          "
};
