/* XPM */
static char *result[] = {
/* columns rows colors chars-per-pixel */
"192 32 6 1 ",
"  c #04193F",
". c #780BF7",
"X c #D840FB",
"o c #F489F6",
"O c #FCFEFE",
"+ c None",
/* pixels */
"++++++++++++++++++++++++++++++++++++++++++++++++++++++++++++++++++++++++++++++++++++++++++++++++++++++++++++++++++++++++++++++++++++++++++++++++++++++++++++++++++++++++++++++++++++++++++++++++",
"++++++++++++++++++++++++++++++++++++++++++++++++++++++++++++++++++++++++++++++++++++++++++++++++++++++++++++++++++++++++++++++++++++++++++++++++++++++++++++++++++++++++++++++++++++++++++++++++",
"++++++++++++++++++++++++++++++++++++++++++++++++++++++++++++++++++++++++++++++++++++++++++++++++++++++++++++++++++++++++++++++++++++++++++++++++++++++++++++++++++++++++++++++++++++++++++++++++",
"++++++++++++++++++++++++++++++++++++++++++++++++++++++++++++++++++++++++++++++++++++++++++++++++++++++++++++++++++++++++++++++++++++++++++++++++++++++++++++++++++++++++++++++++++++++++++++++++",
"++++++++++++++++++++++++++++++++++++++++++  +++++  ++++++++++++++++++++++   ++++++++++++++++++++++++++++++++++++++++++++++++++++++++++++++  +++++  ++++++++++++++++++++++   ++++++++++++++++++++",
"++++++++++   ++++   +++++++++++++++++++++ oo +++ .. ++++++++++++++++++++ ooo  +   ++++++++++++++++++++++++   ++++   +++++++++++++++++++++ oo +++ .. ++++++++++++++++++++ ooo  +   ++++++++++++++",
"+++++++++ ooo ++ ... +++++++++++++++++++ oooo + ... ++++++++++++++++++++ ooooo ...  +++++++++++++++++++++ ooo ++ ... +++++++++++++++++++ oooo + ... ++++++++++++++++++++ ooooo ...  ++++++++++++",
"+++++++++ ooo ++ ... +++++++++++++++++++ ooooo  .... +++++++++++++++++++ ooooXXXX... ++++++++++++++++++++ ooo ++ ... +++++++++++++++++++ ooooo  .... +++++++++++++++++++ ooooXXXX... +++++++++++",
"+++++++++ oooo   ... ++++++++++++++++++++ oooXXXX... ++++++++++++++++++++ XXooooXXX.. +++++++++++++++++++ oooo   ... ++++++++++++++++++++ oooXXXX... ++++++++++++++++++++ XXooooXXX.. ++++++++++",
"+++++++++ oooXXXX.... +++++++++++++++++++ XoooooXXX.. ++++++++++++++++++ XoooooooXXX. +++++++++++++++++++ oooXXXX.... +++++++++++++++++++ XoooooXXX.. ++++++++++++++++++ XoooooooXXX. ++++++++++",
"++++++++ XooooooXXX.. ++++++++++++++++++ XoooooooXXX. ++++++++++++++++++ oooooOOOOOO.. +++++++++++++++++ XooooooXXX.. ++++++++++++++++++ XoooooooXXX. ++++++++++++++++++ oooooOOOOOO.. +++++++++",
"++++++++ XoooooooXXX. ++++++++++++++++++ oooooOOOOOO.. ++++++++++++++++ XooooOOOOOOOO. +++++++++++++++++ ooooooooXXX. ++++++++++++++++++ oooooOOOOOO.. ++++++++++++++++ XooooOOOOOOOO. +++++++++",
"++++++++ oooooOOOOOO.. ++++++++++++++++ XooooOOOOOOOO. ++++++++++++++++ ooooOO   OOO  . ++++++++++++++++ oooooOOOOOO.. ++++++++++++++++ XooooOOOOOOOO. ++++++++++++++++ ooooOO   OOO  . ++++++++",
"+++++++ XooooOOOOOOOO. ++++++++++++++++ ooooOO   OOO  . +++++++++++++++ ooooO  OO O  O  +++++++++++++++ XooooOOOOOOOO. ++++++++++++++++ ooooOO   OOO  . +++++++++++++++ ooooO  OO O  O  ++++++++",
"+++++++ ooooOO   OOO  . +++++++++++++++ ooooO  OO O  O  +++++++++++++++ ooooO  OO O  O  +++++++++++++++ ooooOO   OOO  . +++++++++++++++ ooooO  OO O  O  +++++++++++++++ ooooO  OO O  O  ++++++++",
"+++++++ ooooO  OO O  O  +++++++++++++++ ooooO  OO O  O  +++++++++++++++ ooooO  OO O  O  +++++++++++++++ ooooO  OO O  O  +++++++++++++++ ooooO  OO O  O  +++++++++++++++ ooooO  OO O  O  ++++++++",
"+++++++ ooooO     O     +++++++++++++++ ooooO     O     +++++++++++++++ XooooO   OOO  . +++++++++++++++ ooooO     O     +++++++++++++++ ooooO     O     +++++++++++++++ XooooO   OOO  . ++++++++",
"+++++++ ooooO     O     +++++++++++++++ XooooO   OOO  . ++++++++++++++++ ooooOOOOOOOOO ++++++++++++++++ ooooO     O     +++++++++++++++ XooooO   OOO  . ++++++++++++++++ ooooOOOOOOOOO +++++++++",
"+++++++ XooooO   OOO  . ++++++++++++++++ ooooOOOOOOOOO +++++++++++++++++ XooooXOOOOOO. ++++++++++++++++ XooooO   OOO  . ++++++++++++++++ ooooOOOOOOOOO +++++++++++++++++ XooooXOOOOOO. +++++++++",
"++++++++ ooooOOOOOOOOO +++++++++++++++++ XooooXOOOOOO. ++++++++++++++++++ oooooXXX... ++++++++++++++++++ ooooOOOOOOOOO +++++++++++++++++ XooooXOOOOOO. ++++++++++++++++++ oooooXXX... ++++++++++",
"++++++++ XooooXOOOOOO. ++++++++++++++++++ oooooXXX... +++++++++++++++++++ ooooooOOO. +++++++++++++++++++ XooooXOOOOOO. ++++++++++++++++++ oooooXXX... +++++++++++++++++++ ooooooOO.. +++++++++++",
"+++++++++ oooooXXX... +++++++++++++++++++ ooooooOOO. +++++++++++++++++++ oooooooOOO. ++++++++++++++++++++ oooooXXX... +++++++++++++++++++ ooooooOO.. ++++++++++++++++++++ ooo.oOOOO. +++++++++++",
"+++++++++ ooooooOOO. ++++++++++++++++++++ ooo.oOOOO. +++++++++++++++++++ ooo.ooOOOOO. +++++++++++++++++++ ooooooOOO. +++++++++++++++++++ oooooooOOO. ++++++++++++++++++++ ooo.oOOOOO +++++++++++",
"+++++++++ ooo.oOOOO. ++++++++++++++++++++ ooo.oOOOOO ++++++++++++++++++ oooo.ooOOOOO. ++++++++++++++++++ oooooooOOOO. ++++++++++++++++++ ooo.ooOOOO.. ++++++++++++++++++ oooo.OOOOOO. ++++++++++",
"+++++++++ ooo.oOOOOO +++++++++++++++++++ oooo.oOOOOO. +++++++++++++++++ ooo.XooOOOOO.. ++++++++++++++++ oooooooOOOOO.. ++++++++++++++++ oooo.ooOOOOO. ++++++++++++++++++ ooo.XOOOOOO. ++++++++++",
"+++++++++ oooo.OOOOO +++++++++++++++++++ ooo.XoOOOOO. +++++++++++++++++ ooo.XooOOOOO.. +++++++++++++++ ooooo.ooOOOOO... +++++++++++++++ ooo.XooOOOOO.. +++++++++++++++++ ooo.XOOOOOO. ++++++++++",
"+++++++++ .ooo.OOOOO +++++++++++++++++++ ooo.XoOOOOO. ++++++++++++++++++  .XXoo.OOO... +++++++++++++++ oooo.XooOOOOO... +++++++++++++++ ooo.XooOOOOO.. +++++++++++++++++ ooo.XoOOOO. +++++++++++",
"+++++++++ .ooo.OOOOO ++++++++++++++++++++ ..XXo.OOO. +++++++++++++++++++++ Xooo.XX.   ++++++++++++++++ ooo XXoooOOOO... ++++++++++++++++  .XXoo.OOO... ++++++++++++++++++ ..XXooXX.. +++++++++++",
"+++++++++ X...XOOOO. +++++++++++++++++++++ XXoo.XX.. +++++++++++++++++++++ ooooo .. +++++++++++++++++++   + oooo.OO.   +++++++++++++++++++ Xooo.XX..  +++++++++++++++++++ XXXoo  .... ++++++++++",
"+++++++++ oXXXXXXX... ++++++++++++++++++++ oooo .... ++++++++++++++++++++++ oooo .. +++++++++++++++++++++++ oooo.XX +++++++++++++++++++++++ oooo ... ++++++++++++++++++++ ooooo  .... ++++++++++",
"++++++++ ooooo   ..... ++++++++++++++++++++     .... ++++++++++++++++++++++ oooo . +++++++++++++++++++++++++ oooo  ++++++++++++++++++++++++ oooo    +++++++++++++++++++++ oooo + .... ++++++++++",
"++++++++ oooo +++ .... +++++++++++++++++++++++++ ... +++++++++++++++++++++++    .. +++++++++++++++++++++++++ oooo +++++++++++++++++++++++++ oooo ++++++++++++++++++++++++ oooo ++    +++++++++++"
};
