/* XPM */
static char *result[] = {
/* columns rows colors chars-per-pixel */
"30 32 9 1 ",
"  c #0F0F10",
". c #35231E",
"X c #3E363B",
"o c #573B33",
"O c #775044",
"+ c #966A4B",
"@ c #87717B",
"# c #B99968",
"$ c #BFB0B3",
/* pixels */
" OOO                        OO",
".+++   ooooo ooooooo oooo   ++",
".##+o ooOOOO OOOOOOO OOOoo o+#",
".OOOo ooooOO OOOOOOO OOooo oOO",
".OOO oOO+++++++++++++++++OO OO",
".ooo oXXXOOOOOOOOOOOOOOOooo oo",
".OOO X@$$XOOOOOOOOOOOOOOOoo OO",
".O## X@@@X                 o##",
".O##o    ooo ooooooo ooooo o##",
".+++o ooOoOO OOOOOOO OOOoo o++",
".+##o ooOoOO O+++++O OOOoo o##",
".+##o ooOO++ O++O++O ++Ooo o##",
".++oo oOOOO+ #+++++# ++Ooo oo+",
".+##o oOOO+# #O+O++# ++Ooo o##",
".+##o ooOO+# #O+O++# +OXXX o##",
".++Oo ooOO+# #+++O+# +X$$$ oO+",
".OOoo ooOO+# #++O++# +X@ @ ooO",
".+##o ooOO+# #++O++# +X@ @ o##",
".+##o ooOO++ #++O++# ++    o##",
".Oooo ooOOO+ #++O++# +OOOo ooo",
".OOOo ooOOO+ #+++++# +OOoo oOO",
".O##o ooOOO+ +O++++O +OOoo o##",
".+##o ooOoOO OOOOOOO OOOoo o##",
".+++o oooooo ooooooo ooooo o++",
".+## oOO+++++++++++++++++Oo ##",
".+## oXXXOOOOOOOOOOOOOOOooo ##",
".+++ X@$$XOOOOOOOOOOOOOOOoo ++",
".+#+ X@@@X                 o+#",
".+#+o    ooo ooooooo ooooo o+#",
".O+Oo ooOOOO OOOOOOO OOOoo oO+",
".OOOo ooOOOO OOOOOOO OOOoo oOO",
".ooo                        oo"
};
