/* XPM */
static char *result[] = {
/* columns rows colors chars-per-pixel */
"31 34 10 1 ",
"  c #0F0F10",
". c #35231E",
"X c #3E363B",
"o c #573B33",
"O c #775044",
"+ c #966A4B",
"@ c #87717B",
"# c #B99968",
"$ c #BFB0B3",
"% c None",
/* pixels */
"%%%%%%%%%%%%%%%%%%%%%%%%%%%%%%%",
"%%%%%%%%%%%%%%%%%%%%%%%%%%%%%%%",
" OOO                        OOO",
".+++   . .                  +++",
".##+o o. .. .              o+##",
".OOOo oo .. .. .           oOOO",
".OOO oOX .. .. .            OOO",
".ooo oX@ .o .. .            ooo",
".OOO X$@ .o .. .            OOO",
".O## X@  .. o. .           o##O",
".O##o  o o. o. .           o##O",
".+++o oO o. o. .           o+++",
".+##o oO oo .. .           o##+",
".+##o oO oo o. .           o##+",
".++oo oO oo o. .           oo++",
".+##o oO Oo o. X           o##+",
".+##o oO Oo oo@X           o##+",
".++Oo oO Oo OoXX           oO++",
".OOoo oO Oo OoX            ooOO",
".+##o oO Oo oo .           o##+",
".+##o oO Oo oo .           o##+",
".Oooo oO Oo o. .           oooO",
".OOOo oO Oo o. .           oOOO",
".O##o oO oo o. .           o##O",
".+##o oO oo o. .           o##+",
".+++o oo oo .. .           o+++",
".+## oOX o. o. .            ##+",
".+## oX@ .. o. .            ##+",
".+++ X$@ .o .. .            +++",
".+#+ X@  .. ..             o+#+",
".+#+o  o .. .              o+#+",
".O+Oo o. .                 oO+O",
".OOOo o.                   oOOO",
".ooo                        ooo"
};
