/* XPM */
static char *result[] = {
/* columns rows colors chars-per-pixel */
"32 32 33 1 ",
"  c #2E1E22",
". c #323234",
"X c #5C2E00",
"o c #4D3B39",
"O c #534721",
"+ c #28425B",
"@ c #28577C",
"# c #444444",
"$ c #545456",
"% c #77584A",
"& c #705654",
"* c #6D6D6E",
"= c #767678",
"- c #964F00",
"; c #8B5E4A",
": c #9D704C",
"> c #A77E5D",
", c #8F7772",
"< c #E1B300",
"1 c #FFD600",
"2 c #FFFC00",
"3 c #D7906E",
"4 c #286E9F",
"5 c #2888CC",
"6 c #928A8C",
"7 c #B7B7BB",
"8 c #EEBE93",
"9 c #FFE1AF",
"0 c gray85",
"q c #D9D9DD",
"w c gray95",
"e c white",
"r c None",
/* pixels */
"rrrrrrrrrrrrr+++++++rrrrrrrrrrrr",
"rrrrrrrrrrr++@@444@@++rrrrrrrrrr",
"rrrrrrrrrr+@@4444444@@+rrrrrrrrr",
"rrrrrrrrr+@@445555544@@+rrrrrrrr",
"rrrrrrrro+@44555555544@+orrrrrrr",
"rrrrrrro&+@45555555554@+&orrrrrr",
"rrrrrr+++<<45555555554<<+++rrrrr",
"rrrr++@@@<1111222221111<@@@++rrr",
"rrr+@@444441122222221144444@@+rr",
"rrrr+@@4555555555555555554@@+rrr",
"rrrrr+++@@4455555555544@@+++rrrr",
"rrrrro&,+++++@@@@@@@+++++&&orrrr",
"rrrrro&&&,&OOO&,,&9OOO&,,&&orrrr",
"rrrrro&&,,&0 q&,&99q 08&,&&orrrr",
"rrrrro&&,,&w 69&9996 w8:,&&orrrr",
"rrrrrro&,&8eXX99999XXe8:,&orrrrr",
"rrrrrroo&&38--99999--83O&&orrrrr",
"rrrrrrroo&O38999999983O..orrrrrr",
"rrrrrrrr#o.O:3888883:O.##rrrrrrr",
"rrrrrrr=7###OOOOOOOOO###7=rrrrrr",
"rrrrrr.=qe$$$$*$$$*$$$$eq=.rrrrr",
"rrrrrr=qee=$$*eq$qe*$$=eeq=rrrrr",
"rrrrrr=eee=7qeee*eeeq7=eee=rrrrr",
"rrrrrO<eeq=%7qee*eeq7%=qee<Orrrr",
"rrrrrO92q7=@%;;111;;%@=7q29Orrrr",
"rrrrrO9817=4$5$5$5$5$4=7189Orrrr",
"rrrrr.OO1<+4$4$5$5$4$4+<1OO.rrrr",
"rrrrr.**OO+@$@$+++$@$@+OO**.rrrr",
"rrrrr.**.##O;>;O#O;>;O##.**.rrrr",
"rrrrrr.*...O;;%O.O%;;O...*.rrrrr",
"rrrrrrr.rrrO>>;OrO;>>Orrr.rrrrrr",
"rrrrrrrrrrrrOOOrrrOOOrrrrrrrrrrr"
};
