/* XPM */
static char *result[] = {
/* columns rows colors chars-per-pixel */
"32 32 19 1 ",
"  c gray16",
". c #3A3A3A",
"X c #473D3C",
"o c #534721",
"O c #444444",
"+ c #505050",
"@ c #585858",
"# c #685958",
"$ c gray38",
"% c gray49",
"& c #9D704C",
"* c #877A77",
"= c #A78D0E",
"- c #D7906E",
"; c #FFD644",
": c #B0A39F",
"> c #EEBE93",
", c #FFE1AF",
"< c None",
/* pixels */
"<<<<<<<<<<<<<<<<<<<<<<<<<<<<<<<<",
"<<<<<<<<<<<<<<<<<<<<<<<<<<<<<<<<",
"<<<<<<<<<<<<<XXXXXXX<<<<<<<<<<<<",
"<<<<<<<<<<<XX#######XX<<<<<<<<<<",
"<<<<<<<<<XX#*********#XX<<<<<<<<",
"<<<<<<<<X#***:*****:***#X<<<<<<<",
"<<<<<<<X#***:*******:***#X<<<<<<",
"<<<<<<X#***::*******::***#X<<<<<",
"<<<<<<X*****::*****::*****X<<<<<",
"<<<<<X#*#****:::::::****#*#X<<<<",
"<<<<<X##*****************##X<<<<",
"<<<<<X##*****************##X<<<<",
"<<<<<X###*#***********#*###X<<<<",
"<<<<<X#-###***********###-#X<<<<",
"<<<<<<X-###*#*#***#*#*###-X<<<<<",
"<<<<<<<o#####*##*##*#####o<<<<<<",
"<<<<<<<<X###############X<<<<<<<",
"<<<<<<<<<X#############X<<<<<<<<",
"<<<<<<<<<.X#X#######X#X.<<<<<<<<",
"<<<<<<<<.$.X$X#X#X#X$X$$.<<<<<<<",
"<<<<<<<.+$.+.$X%X%X$.+$%$.<<<<<<",
"<<<<<<<=++.++++++++++++%%$.<<<<<",
"<<<<<<.+++.+$$%%%%%$$+.$;%$.<<<<",
"<<<<<<o&++.+$%%%%%%%$+.+%$,-o<<<",
"<<<<<<<o&&.+$%%%%%%%$+..$,,>o<<<",
"<<<<<<<<oo.+$%%%$%%%$+.<.>>-o<<<",
"<<<<<<<<<<..$%%%.%%%$..<<ooo<<<<",
"<<<<<<<<<<.+....+....+.<<<<<<<<<",
"<<<<<<<<<<<+$%$...+++.<<<<<<<<<<",
"<<<<<<<<<<<.%%+.<.+++.<<<<<<<<<<",
"<<<<<<<<<<<.%%+.<<   <<<<<<<<<<<",
"<<<<<<<<<<< @@O <<<<<<<<<<<<<<<<"
};
