/* XPM */
static char *result[] = {
/* columns rows colors chars-per-pixel */
"32 32 25 1 ",
"  c #2E1E22",
". c gray16",
"X c gray22",
"o c #3A3A3A",
"O c #473D3C",
"+ c #534721",
"@ c #444444",
"# c #505050",
"$ c #685958",
"% c gray38",
"& c gray49",
"* c #964F00",
"= c #9D704C",
"- c #877A77",
"; c #DFB81B",
": c #D7906E",
"> c #FFD644",
", c #928A8C",
"< c #B0A39F",
"1 c #EEBE93",
"2 c #FFE1AF",
"3 c gray85",
"4 c #D9D9DD",
"5 c white",
"6 c None",
/* pixels */
"66666666666666666666666666666666",
"66666666666666666666666666666666",
"6666666666666OOOOOOO666666666666",
"66666666666OO$$$$$$$OO6666666666",
"666666666OO$-<-----<-$OO66666666",
"66666666O$--<-------<--$O6666666",
"6666666O$--<<<-----<<<--$O666666",
"666666O$----<<<<<<<<<----$O66666",
"666666O--$-------------$--O66666",
"66666O$-$----$--$--$----$-$O6666",
"66666O$$--$--$-$2$-$--$--$$O6666",
"66666O$$--$-$2$222$2$-$--$$O6666",
"66666O$$$-$$222222222$$-$$$O6666",
"66666O$:$$1222222222221$$:$O6666",
"666666O:$:1+++22222+++1:$:O66666",
"6666666+$=13 4222224 31=$+666666",
"66666666+=15 ,22222, 51=+6666666",
"666666666+:1**22222**1:+66666666",
"666666666o+:122222221:+o66666666",
"66666666o#o+=:11111:=+o#o6666666",
"6666666o#%#o+++++++++o%%#o666666",
"6666666#%&%##o%&#&%o##%%%#o66666",
"666666o%&&##%&o###o&%#o###=+6666",
"666666o;&&o###&&>#&&&#ooo==+6666",
"666666o%22o#&&&&%#&&&#o66++66666",
"666666+122+#&&&&>#&&&#o666666666",
"666666+=1:+o%&&&%#&&%oo666666666",
"6666666+++6oooooooooo#o666666666",
"66666666666o###oo#%&%#6666666666",
"66666666666.###o6o%&&o6666666666",
"666666666666...66o#%&.6666666666",
"66666666666666666.X@@.6666666666"
};
