/* XPM */
static char *result[] = {
/* columns rows colors chars-per-pixel */
"32 32 25 1 ",
"  c #2E1E22",
". c gray16",
"X c gray22",
"o c #3A3A3A",
"O c #473D3C",
"+ c #534721",
"@ c #444444",
"# c #505050",
"$ c #685958",
"% c gray38",
"& c gray49",
"* c #964F00",
"= c #9D704C",
"- c #877A77",
"; c #DFB81B",
": c #D7906E",
"> c #FFD644",
", c #928A8C",
"< c #B0A39F",
"1 c #EEBE93",
"2 c #FFE1AF",
"3 c gray85",
"4 c #D9D9DD",
"5 c white",
"6 c None",
/* pixels */
"66666666666666666666666666666666",
"666666666666OOOOOOO6666666666666",
"6666666666OO$$$$$$$OO66666666666",
"66666666OO$-<-----<-$OO666666666",
"6666666O$--<-------<--$O66666666",
"666666O$--<<<-----<<<--$O6666666",
"66666O$----<<<<<<<<<----$O666666",
"66666O--$-$--------------O666666",
"6666O$-$$--$--$---$------$O66666",
"6666O$-$:$-$--$---$------$O66666",
"6666O$$$11$2$-$$---$---$-$O66666",
"66666O$+12222$2$---$$--$-$O66666",
"666666O+12222222$-++$--$$$O66666",
"6666666+122+++22-+12+$-$$$O66666",
"6666666+1224 322-1=2+$-$$$O66666",
"6666666+:22, 522-2=1+$$$$O666666",
"6666666+=12**22221:+$$$$$O666666",
"66666666+:1222221::$$$$$O6666666",
"666666666+=::111::=O$$$O66666666",
"6666666666+++++++ooO$OO666666666",
"6666666666o%&&%o#%%#O66666666666",
"6666666666oo##o%%%&%o66666666666",
"6666666666o;%####%&%o66666666666",
"6666666666o#%&&&o%>%o66666666666",
"6666666666o;%&&&o%&%o66666666666",
"6666666666o#%&&&+221+66666666666",
"66666666666ooooo+22:+66666666666",
"666666666666o%&&%+++666666666666",
"6666666666666o&&%#o6666666666666",
"6666666666666o%%##.6666666666666",
"6666666666666.@@@X.6666666666666",
"66666666666666....66666666666666"
};
