/* XPM */
static char *result[] = {
/* columns rows colors chars-per-pixel */
"32 32 26 1 ",
"  c #2E1E22",
". c gray16",
"X c gray22",
"o c #3A3A3A",
"O c #473D3C",
"+ c #534721",
"@ c #444444",
"# c #505050",
"$ c #585858",
"% c #685958",
"& c gray38",
"* c gray49",
"= c #964F00",
"- c #9D704C",
"; c #877A77",
": c #DFB81B",
"> c #D7906E",
", c #FFD644",
"< c #928A8C",
"1 c #B0A39F",
"2 c #EEBE93",
"3 c #FFE1AF",
"4 c gray85",
"5 c #D9D9DD",
"6 c white",
"7 c None",
/* pixels */
"77777777777777777777777777777777",
"77777777777777777777777777777777",
"7777777777777OOOOOOO777777777777",
"77777777777OO%%%%%%%OO7777777777",
"777777777OO%;1;;;;;1;%OO77777777",
"77777777O%;;1;;;;;;;1;;%O7777777",
"7777777O%;;111;;;;;111;;%O777777",
"777777O%;;;;111111111;;;;%O77777",
"777777O;;%;%;;;;;;%;;;;;;;O77777",
"77777O%;%%;;%;;%;;;%;;;;;;%O7777",
"77777O%;%>%;%;;%;;;%;;;;;;%O7777",
"77777O%%%22%3%;%%;;;%;;;%;%O7777",
"777777O%+23333%3%;;;%%;;%;%O7777",
"7777777O+23333333%;++%;;%%%O7777",
"77777777+233+++33;+23+%;%%%O7777",
"77777777+2335 433;2-3+%;%%%O7777",
"77777777+>33< 633;3-2+%%%%O77777",
"77777777+-23==33332>+%%%%%O77777",
"777777777+>2333332>>%%%%%O777777",
"7777777777+->>222>>-O%%%O7777777",
"77777777777+++++++ooO%OO77777777",
"77777777777o&**&o#&&#O7777777777",
"77777777777oo##o&&**&#o777777777",
"77777777777o:&####&**,#o77777777",
"77777777777o#&***&o&**&o77777777",
"77777777777o:&****&o&33>+7777777",
"77777777777o#&****&+>33>+7777777",
"777777777777oooooooo+>>+77777777",
"77777777777o&**&#o###++777777777",
"7777777777.$&*&#o7o##o7777777777",
"7777777777.@$@X.77...77777777777",
"77777777777....77777777777777777"
};
