/* XPM */
static char *result[] = {
/* columns rows colors chars-per-pixel */
"32 32 25 1 ",
"  c #2E1E22",
". c gray16",
"X c gray22",
"o c #3A3A3A",
"O c #473D3C",
"+ c #534721",
"@ c #444444",
"# c #505050",
"$ c #685958",
"% c gray38",
"& c gray49",
"* c #964F00",
"= c #9D704C",
"- c #877A77",
"; c #DFB81B",
": c #D7906E",
"> c #FFD644",
", c #928A8C",
"< c #B0A39F",
"1 c #EEBE93",
"2 c #FFE1AF",
"3 c gray85",
"4 c #D9D9DD",
"5 c white",
"6 c None",
/* pixels */
"66666666666666666666666666666666",
"66666666666666666666666666666666",
"6666666666666OOOOOOO666666666666",
"66666666666OO$$$$$$$OO6666666666",
"666666666OO$-<-----<-$OO66666666",
"66666666O$--<-------<--$O6666666",
"6666666O$--<<<-----<<<--$O666666",
"666666O$----<<<<<<<<<----$O66666",
"666666O--------------$-$--O66666",
"66666O$------$---$--$--$$-$O6666",
"66666O$------$---$--$-$:$-$O6666",
"66666O$-$---$---$$-$2$11$$$O6666",
"66666O$-$--$$---$2$22221+$O66666",
"66666O$$$--$++-$22222221+O666666",
"66666O$$$-$+21+-22+++221+6666666",
"66666O$$$-$+2=1-223 4221+6666666",
"666666O$$$$+1=2-225 ,22:+6666666",
"666666O$$$$$+:12222**21=+6666666",
"6666666O$$$$$::1222221:+66666666",
"66666666O$$$O=::111::=+666666666",
"666666666OO$Ooo+++++++6666666666",
"66666666666O#%%#o%&&%o6666666666",
"66666666666o#%&%%o##oo6666666666",
"66666666666o#%&&o#&%;o6666666666",
"66666666666oo#%>&o&%#o6666666666",
"66666666666oo#%%22+%;o6666666666",
"66666666666o#o#122+%#o6666666666",
"66666666666ooo+:1:+ooo6666666666",
"666666666666o%&+++o##X.666666666",
"66666666666o#&&%#ooXX@.666666666",
"66666666666.X@@@.66...6666666666",
"666666666666....6666666666666666"
};
