/* XPM */
static char *result[] = {
/* columns rows colors chars-per-pixel */
"32 32 23 1 ",
"  c #3A3A3A",
". c #683B00",
"X c #493C3B",
"o c #E3290B",
"O c #FD0D13",
"+ c #624957",
"@ c #6A4C5D",
"# c #6B5857",
"$ c #785268",
"% c gray38",
"& c #FA4700",
"* c #975300",
"= c #9D704C",
"- c #E3680B",
"; c #D7906E",
": c #B2A29D",
"> c #EEBE93",
", c #FFE1AF",
"< c #C4C1C3",
"1 c #DDDDDD",
"2 c gray93",
"3 c white",
"4 c None",
/* pixels */
"44444444444444444444444444444444",
"44444444444444444444444444444444",
"444444444444XXXXXXXXX44444444444",
"4444444444XX##--#--##XX444444444",
"444444444X#-#---#---#-#X44444444",
"44444444X#----:---:----#X4444444",
"4444444X#--:--:---:--:--#X444444",
"4444444X#---:---#---:---#X444444",
"444444X#-#-###--#--###-#-#X44444",
"444444X#--#>>,#####,>>#--#X44444",
"444444X#-->>,,,,,,,,,>>--#X44444",
"444444X##->,,,,,,,,,,,>-##X44444",
"444444Xo#->,,,,,,,,,,,>-#oX44444",
"444444o;#;>,,,,,,,,,,,>;#;o44444",
"444444o;#+>,,,,,,,,,,,>+#;o44444",
"4444444oo+$2233$@$3322$+oo444444",
"44444444o=$1223@,@3221$=o4444444",
"444444444o;$$$$,,,$$$$;o44444444",
"444444444 o;>,,,,,,,>;o 44444444",
"44444444 O o=;>>>>>;=o O 4444444",
"4444444 O%% ooooooooo O%O 444444",
"444444 O%%% O&O<.<O&O %&%O444444",
"44444o=OOO O  &.*.&  OO&&% 44444",
"44444o==   O&OO&*&OOOO &&% 44444",
"444444oo44 O&&&O&O&&&O ,,% 44444",
"4444444444 O&&&O &&&&Oo,,>o44444",
"4444444444  %&&O%&&&% o;>=o44444",
"4444444444 O          4ooo444444",
"44444444444O%&%O  OOO 4444444444",
"44444444444 &&% 4 OOO 4444444444",
"44444444444 &%O 44   44444444444",
"44444444444 %%O 4444444444444444"
};
