/* XPM */
static char *result[] = {
/* columns rows colors chars-per-pixel */
"32 32 23 1 ",
"  c #3A3A3A",
". c #683B00",
"X c #493C3B",
"o c #E3290B",
"O c #FD0D13",
"+ c #624957",
"@ c #6A4C5D",
"# c #6B5857",
"$ c #785268",
"% c gray38",
"& c #FA4700",
"* c #975300",
"= c #9D704C",
"- c #E3680B",
"; c #D7906E",
": c #B2A29D",
"> c #EEBE93",
", c #FFE1AF",
"< c #C4C1C3",
"1 c #DDDDDD",
"2 c gray93",
"3 c white",
"4 c None",
/* pixels */
"44444444444444444444444444444444",
"444444444444XXXXXXXXX44444444444",
"4444444444XX##-----##XX444444444",
"444444444X#----####---#X44444444",
"44444444X#-::------###-#X4444444",
"44444444#-:-#-::----:-#-#X444444",
"44444444#--#-:-##--#-:-#-X444444",
"44444444#--#--#--::-#--#-#X44444",
"44444444o##>,,,,,----#-#-#X44444",
"44444444o;>,,,,,,##--#--##X44444",
"44444444o>>,,,,,---#-#--##X44444",
"44444444o>,,,,,,---##-#--#X44444",
"44444444o>,,,,,,,--oo-#--#X44444",
"44444444o>,,,,,,,-o>,o#-##X44444",
"44444444+@$3322$@->=,o#-##X44444",
"44444444o;$3221$,-,=>o####X44444",
"44444444o=>$$$$,,,>;o####X444444",
"444444444o;>,,,,,>;;####X4444444",
"4444444444o=;;>>>;;==X#X44444444",
"44444444444ooooooo   4X444444444",
"44444444444 .<O%O %%O 4444444444",
"44444444444 *.&  %%&% 4444444444",
"44444444444 .%OOOO%&% 4444444444",
"44444444444 OO&&& %&% 4444444444",
"44444444444  %&&& %&% 4444444444",
"44444444444 O%&&&o,,>o4444444444",
"444444444444     o,,;o4444444444",
"4444444444444 %&&%ooo44444444444",
"44444444444444 &&%O 444444444444",
"44444444444444 %%OO 444444444444",
"44444444444444 %%%O 444444444444",
"444444444444444    4444444444444"
};
