/* XPM */
static char *result[] = {
/* columns rows colors chars-per-pixel */
"32 32 23 1 ",
"  c #3A3A3A",
". c #683B00",
"X c #493C3B",
"o c #E3290B",
"O c #FD0D13",
"+ c #624957",
"@ c #6A4C5D",
"# c #6B5857",
"$ c #785268",
"% c gray38",
"& c #FA4700",
"* c #975300",
"= c #9D704C",
"- c #E3680B",
"; c #D7906E",
": c #B2A29D",
"> c #EEBE93",
", c #FFE1AF",
"< c #C4C1C3",
"1 c #DDDDDD",
"2 c gray93",
"3 c white",
"4 c None",
/* pixels */
"44444444444444444444444444444444",
"44444444444444444444444444444444",
"444444444444XXXXXXXXX44444444444",
"4444444444XX##-----##XX444444444",
"444444444X#---####----#X44444444",
"44444444X#-###------::-#X4444444",
"4444444X#-#-:----::-#-:-#4444444",
"4444444X-#-:-#--##-:-#--#4444444",
"444444X#-#--#-::--#--#--#4444444",
"444444X#-#-#----,,,,,>##o4444444",
"444444X##--#--##,,,,,,>;o4444444",
"444444X##--#-#---,,,,,>>o4444444",
"444444X#--#-##---,,,,,,>o4444444",
"444444X#--#-oo--,,,,,,,>o4444444",
"444444X##-#o,>o-,,,,,,,>o4444444",
"444444X##-#o,=>-@$2233$@+4444444",
"444444X####o>=,-,$1223$;o4444444",
"4444444X####o;>,,,$$$$>=o4444444",
"44444444X####;;>,,,,,>;o44444444",
"444444444X#X==;;>>>;;=o444444444",
"4444444444X4   ooooooo4444444444",
"44444444444 O%% O%O<. 4444444444",
"44444444444 O%&%  &.* 4444444444",
"44444444444 O%&& OO%. 4444444444",
"44444444444  O%&& &OO 4444444444",
"44444444444  O%%,,o%  4444444444",
"44444444444 O O>,,o%O 4444444444",
"44444444444   o;>;o   4444444444",
"444444444444 %&ooo OOO 444444444",
"44444444444 O&&%O  OO% 444444444",
"44444444444 O%%% 44   4444444444",
"444444444444    4444444444444444"
};
