/* XPM */
static char *result[] = {
/* columns rows colors chars-per-pixel */
"64 64 10 1 ",
"  c #21110D",
". c #F7794F",
"X c #342319",
"o c #181C32",
"O c #503625",
"+ c #D4C144",
"@ c #57EB80",
"# c #F569E0",
"$ c #4471D4",
"% c #509B66",
/* pixels */
"%%%%%%%%%%%%%%%%%%%%%%%%%%%%%%%%%%%%%%%%%%%%%%%%%%%%%%%%%%%%%%%%",
"%%%%%%%%%%%%%%%%%%%%%%%%%%%%.....%%%%%%%%%%%%%%%%%%%%%%%%%%%%%%%",
"%%%%%%%%%%%%%%%%%%%%%%%%%%%.@$$$@..%%....%%%%%%%%%%%%%%%%%%%%%%%",
"%%%%%%%%%%%%%%%%%%%%%....%.@$$$$$$@..@$$$.%%%%%%%%%%%%%%%%%%%%%%",
"%%%%%%%%%%%%%%%%%%%%.@$$@.@$$$$$$$$$@$$$$$....%%%%%%%%%%%%%%%%%%",
"%%%%%%%%%%%%%%%%%%%.@$$$$$@$$$$$$$$$@$$$$$.$$@.%%%%%%%%%%%%%%%%%",
"%%%%%%%%%%%%%%%%%%%.@$$$$$$@$$$$$$$$$$$$$$$$$$@.%%%%%%%%%%%%%%%%",
"%%%%%%%%%%%%%%%%...++$$$$$$$$$$$$$$$$$$$$$$$$$@.%%%%%%%%%%%%%%%%",
"%%%%%%%%%%%%%%%.@@+$$@$$$$$$$$$$$$$$$$$$$$$$$$++.%%%%%%%%%%%%%%%",
"%%%%%%%%%%%%%%.@$$@$$$$$$$$$$$$$$$$$$$$$$$$$$+$$.%%%%%%%%%%%%%%%",
"%%%%%%%%%%%%%%.$$$$$$$$$$$$$$$$$$$$$$$$$$$$$$$$$@.%%%%%%%%%%%%%%",
"%%%%%%%%%%%%%.@$$$$$$$$$$$$$$$$$$$$$$$@$$$$$$$$$@.%%%%%%%%%%%%%%",
"%%%%%%%%%%%%.@@@$$$$$$$$$$$$$$@@+@$@+@$$$$$$$$$$$@.%%%%%%%%%%%%%",
"%%%%%%%%%%%%.@@@$$$$$$$$$$$$$$$$@+++@@$$$$$$$$$$$@.%%%%%%%%%%%%%",
"%%%%%%%%%%%.@@@$$$$$$$$$$$$$$$$$$$@+@$$$$$$$$$$$$$.%%%%%%%%%%%%%",
"%%%%%%%%%%%.@$@$$$$$$$$$$$$$$$$$$$$@$$$$$$$$$$$$$$@.%%%%%%%%%%%%",
"%%%%%%%%%%%.$$$@$$+$$$$$$$$$$$$$$$$$$$$$$$$$$$$$$$$.%%%%%%%%%%%%",
"%%%%%%%%%%%.@$$@@++$$$$$$$$$$$$$$$$$$$$$$$$$$$$$$$$.%%%%%%%%%%%%",
"%%%%%%%%%%%.@@@@++@$$$$$$$$$$$$$$$$$$$$$$$$$$$$$$$@.%%%%%%%%%%%%",
"%%%%%%%%%%%%.++++@@@$$$$$$$$$$$$$$$$$$$$$$$$$$$$$$.%%%%%%%%%%%%%",
"%%%%%%%%%%%.++@+@$$@$$$$$$$$$$$$$$$$$$$$$$$$$$$$$@.%%%%%%%%%%%%%",
"%%%%%%%%%%.+$$@+@$$$@$$$$$$$$$$$$$$$$$$$$$$$$$$$$$@.%%%%%%%%%%%%",
"%%%%%%%%%%.@$$@+@@$$$$$$$$$$$$$$$$$$$$$$$$$$$$$$$$@..%%%%%%%%%%%",
"%%%%%%%%%.@$$@@++@$$$$$$$$$$$$$$$$$$$$$$$$$$$$@$$$$@.%%%%%%%%%%%",
"%%%%%%%%%.@$$$$@+@$$$$$$@$$$$$$$$$$$$$$$$$$$$@@+$$$@.%%%%%%%%%%%",
"%%%%%%%%%.@$$$$$@@$$$$$$@+$$$$$$$$$$$$$$$$$$$++++@@@.%%%%%%%%%%%",
"%%%%%%%%%.+@$$$$@++$$$$@@@++@$$$$@@$$$$$$$$$$$+$$@@.%%%%%%%%%%%%",
"%%%%%%%%%%.+@@$$$$++$$@$$$$++@$$@@@$$$$$$$$$$$@$$$@.%%%%%%%%%%%%",
"%%%%%%%%%%.++++@$$$++@@$$$$$@+@@@@$$$$$$$$$$$$$@$$@@.%%%%%%%%%%%",
"%%%%%%%%%%%.+@$+@$$@@@$$$$$$$@@@$$$$$$$$$$$$$$$@@@@@.%%%%%%%%%%%",
"%%%%%%%%%%%.+$$@@@@+@$$$$$$$$$@$$$$$$$$$$$$$$$$@@@@+.%%%%%%%%%%%",
"%%%%%%%%%%.++$$$@+++@$$@$$$$$@@$$$$$$$$$$$$@$$+@@@@++.%%%%%%%%%%",
"%%%%%%%%%%.+@+@@++$@+@@@$$$$$@@@$$$$$$$$$$$$++@@@@@++.%%%%%%%%%%",
"%%%%%%%%%%.@$$+++$$$$@@$$$$$@$$@@$@$$+$$$@$$+$$@@@+++.%%%%%%%%%%",
"%%%%%%%%%%.@$$@++$$$$$@$$@$$$$$$$$$++@$$@$@@@$$$@@@++.%%%%%%%%%%",
"%%%%%%%%%%.+@@++++$@$$@@@@@$$$$$$$$$+@@@$$$@@@$$@@@@+.%%%%%%%%%%",
"%%%%%%%%%%%.++++@+++@@@@@@@@@$$$$$$$@@@$$$$@@@@@@+@@.%%%%%%%%%%%",
"%%%%%%%%%%%%.++@$$+@@@@+@@$$@$$$$$$$@@@@@$$+@@+@@+++.%%%%%%%%%%%",
"%%%%%%%%%%%%.+.+$$@$@@@++$$$@+$$$$$$$@@+@@+@@@@++++.%%%%%%%%%%%%",
"%%%%%%%%%%%%%...+@$$$@$@+$$@@+$$$$@$$@+++++@@@@+++.%%%%%%%%%%%%%",
"%%%%%%%%%%%%%%.+++$$+$$$@@@@@+@$$@@@@@@+.++@@+++..%%%%%%%%%%%%%%",
"%%%%%%%%%%%%%%.+++++@$$$@+@@+@@@@@@@+@@+.+++++++.%%%%%%%%%%%%%%%",
"%%%%%%%%%%%%%%%.++.+@@@@+.+++@@@@+@@++++...+++++.%%%%%%%%%%%%%%%",
"%%%%%%%%%%%%%%%%...++++++..++@@@+++++++......++.%%%%%%%%%%%%%%%%",
"%%%%%%%%%%%%%%%%%%.+++++...++++++.++++.........%%%%%%%%%%%%%%%%%",
"%%%%%%%%%%%%%%%%%%%.........++++......X oo..oooo%%%%%%%%%%%%%%%%",
"%%%%%%%%%%%%%%%%%%%%oo  XXO.....XXXXXXX ooooooooo%%%%%%%%%%%%%%%",
"%%%%%%%%%%%%%%%%%%ooo #OXOOOXXOOXXXXOXXO ooooooooo%%%%%%%%%%%%%%",
"%%%%%%%%%%%%%%%%%ooo ##XXOXOX##OOXXOOXX# ooooooooo%%%%%%%%%%%%%%",
"%%%%%%%%%%%%%%%%oooo # X#OOX####OXO#OOXO# ooooooooo%%%%%%%%%%%%%",
"%%%%%%%%%%%%%%%ooooo  X###OX####OOO##OXXOX oooooooo%%%%%%%%%%%%%",
"%%%%%%%%%%%%%%%oooooo ##OOO O#OOO#O##OXX##X ooooooo%%%%%%%%%%%%%",
"%%%%%%%%%%%%%%%ooooo ####OX ###O#####OXXO## ooooooo%%%%%%%%%%%%%",
"%%%%%%%%%%%%%%%ooooo ####O O###O#X####O XO# ooooooo%%%%%%%%%%%%%",
"%%%%%%%%%%%%%%%ooooo ###OX #####XXO#O##  OO ooooooo%%%%%%%%%%%%%",
"%%%%%%%%%%%%%%%ooooo OOOX O###O#X XO#### oooooooooo%%%%%%%%%%%%%",
"%%%%%%%%%%%%%%%oooooooooo ###OOOX XO##### oooooooo%%%%%%%%%%%%%%",
"%%%%%%%%%%%%%%%%ooooooooo ###OOX   OO###O oooooooo%%%%%%%%%%%%%%",
"%%%%%%%%%%%%%%%%ooooooooo OOOOOXooo OOOOO ooooooo%%%%%%%%%%%%%%%",
"%%%%%%%%%%%%%%%%%oooooooooooooooooooooooooooooooo%%%%%%%%%%%%%%%",
"%%%%%%%%%%%%%%%%%ooooooooooooooooooooooooooooooo%%%%%%%%%%%%%%%%",
"%%%%%%%%%%%%%%%%%%ooooooooooooooooooooooooooooo%%%%%%%%%%%%%%%%%",
"%%%%%%%%%%%%%%%%%%%ooooooooooooooooooooooooooo%%%%%%%%%%%%%%%%%%",
"%%%%%%%%%%%%%%%%%%%%oooooooooooooooooooooooo%%%%%%%%%%%%%%%%%%%%"
};
