/* XPM */
static char *result[] = {
/* columns rows colors chars-per-pixel */
"48 39 103 2 ",
"   c #000105",
".  c #00020C",
"X  c #030C0B",
"o  c #000212",
"O  c #010813",
"+  c #000219",
"@  c #161E3A",
"#  c #152034",
"$  c #1D2236",
"%  c #16213D",
"&  c #1B253D",
"*  c #1D293D",
"=  c #22273C",
"-  c #222A3D",
";  c #1B2642",
":  c #1E2943",
">  c #1E2748",
",  c #1E2A49",
"<  c #202743",
"1  c #222D45",
"2  c #292E41",
"3  c #212749",
"4  c #232D4A",
"5  c #263145",
"6  c #293143",
"7  c #25314B",
"8  c #28314D",
"9  c #263151",
"0  c #2B3350",
"q  c #3C4556",
"w  c #37435C",
"e  c #3B445D",
"r  c #3E4A5E",
"t  c #374262",
"y  c #3B4563",
"u  c #3E4A64",
"i  c #3D4669",
"p  c #3E4A6A",
"a  c #444756",
"s  c #434A55",
"d  c #41465B",
"f  c #444A5C",
"g  c #494E5E",
"h  c #414764",
"j  c #424C65",
"k  c #494E62",
"l  c #41476A",
"z  c #434D6A",
"x  c #494F6C",
"c  c #455165",
"v  c #4B5266",
"b  c #45516B",
"n  c #4A536D",
"m  c #505362",
"M  c #444E71",
"N  c #4A4F72",
"B  c #455171",
"V  c #4A5472",
"C  c #4B5974",
"Z  c #646C7C",
"A  c #686E7E",
"S  c #6D737F",
"D  c #5F6D88",
"F  c #5F6F91",
"G  c #646C85",
"H  c #686E86",
"J  c #646E8B",
"K  c #686E8C",
"L  c #677286",
"P  c #6B7385",
"I  c #66728D",
"U  c #6A748D",
"Y  c #6E798E",
"T  c #707787",
"R  c #71778B",
"E  c #737A8C",
"W  c #787E8E",
"Q  c #656F92",
"!  c #6A6E91",
"~  c #667292",
"^  c #6B7593",
"/  c #6C7994",
"(  c #6B7599",
")  c #6D7999",
"_  c #707693",
"`  c #727B95",
"'  c #727C9A",
"]  c #787F9C",
"[  c #747EA0",
"{  c #77809D",
"}  c #828FAF",
"|  c #8D96A5",
" . c #8695AF",
".. c #8795B2",
"X. c #8895B1",
"o. c #8B99B4",
"O. c #8897B8",
"+. c #8D9CBB",
"@. c #939FB5",
"#. c #919CBB",
"$. c #94A2BB",
"%. c #99A2BF",
"&. c #93A2C1",
/* pixels */
"    o + o . . . X X O . o . o o O . . . . . . . o . O . . . o o . O . X . . . . O O + . . .     ",
"  . E _ R d . . r u j + Y P H v o T T g o O f P E P g o G E E k O Z E s O . E P d r U P E P .   ",
". P K ( ! _ + f F ~ ) p ^ Y ^ K j ^ U U O u D D K / K z ] G K I p / L { + P R U p ~ ) I U R ` o ",
". E _ ( ( ' e ] { F F { J ( ( ( B I / ^ w { { { ^ ^ ~ ~ ' ( ( ^ u / I I j ^ ( ^ ( ) ( ) _ K G + ",
"o f ( Q ( ( ; L D F { F +.) ) ~ ; p ) ~ , ~ { F F { { ~ X.( ^ / ; p F { : I ~ u ( F ( F F { L O ",
". P Q ' ! ( b / { +.{ { C &.{ p ( ( ~ p p { { { +.$.{ { i o.o.u / / / F / n u ) ~ +.+.+.$.D E o ",
". | %.#.~ / w L  .{ F &.; t b o.../ ~ / p D { { I { ~  .7 u u +.+...X.$.X.I z I +.~ ~ F I @.Z O ",
". P ~ ~ / : 5 u / F { F , 7 & ( ) I / : : p { { D { / ~ : : : I I / Y I I 5 : z ( ~ ) ) I Y 5 O ",
". P z x l l 3 U ^ ~ M i / 3 / ~ ( p p b : ~ I { { w B u { : F { ( ( ^ z e b ; ( ( ~ ( z j h P o ",
"O f l i N z ; ` y V p p z % ' ( B t C p , { p p p w r u w : I I ^ h i z j h 0 ~ ( Q i z z h k + ",
"  g h h z h * f I l M l j 1 y b I z u u 7 u L u u C w C u 7 C w i C ` j d k ; j ~ V C j h f s . ",
"  a m x e 5 6 - c j l w 2 - - q z j u * & 1 u u u r p r : * * b z e h e j 2 < 1 j i 0 j j g O . ",
"X   $ @ 2 = * - - I ^ ` q * 5 6 - * * * 5 5 1 & L Y Y Y c * * * * 1 1 2 - * $ 1 : 1 ) P P T .   ",
"  . ] _ _ 4 - * U U p y Y 5 w L L { L Y : % * Y I I r p U : b U / ~ / P P Y 1 , 1 ^ I u b W A . ",
"  T G _ ! ( 3 ^ y M [ i j c ) U / I ) U ~ 7 / B b p ) p p p ~ / ( Q ~ [ I / ~ , ( B p y V 0 W o ",
". E z l M _ : z M p i M u I / ~ u b p u ~ 9 t p p p p p p ( ( ( M i M u b l ~ 9 p p p p j z d + ",
". a d n u u 1 u z u z z * E i j u p b u u : p u p u p p * { y u u B p z p z u 1 b y p B j h g . ",
". f j j u * * 5 ; 4 < = 5 * b i p y r b : & 7 : & 7 : : 7 : p r u w u p l z & 1 & b i p h x o . ",
"o o ^ U / / I I ' > 7 j U U ~ ( b : 4 { D { I I { : 7 r L { / { u 7 1 ( _ ^ ` P U : 4 i ' H T . ",
"O T P ^ u u j j ! J 4 U Y I z p I : I I { r c b I D 7 I { I p w I : ~ Q ^ h j j / D 4 / K R g . ",
"o Z z j z j z I l N , ( j u y b u : { u r u b I u p % { w u r p b : / B h z e Y c u , ) z j a . ",
"o v h l u j i b l i 3 3 u b z i 7 : u w b p u p u r : : r p b u : : p u l j b k c V ; : j k f O ",
". o n y j b w b z ; 8 < 5 : ; 9 % 7 : p c r p u b : : * 7 : * 7 : 1 3 z l z u w u * , 7 : = o . ",
". W H ^ ( & 7 i ! ( _ K * 1 , ~ / / / ; 7 u / Y { { { F : : * { I ^ I ( _ < - z I / I ) K _ = . ",
". P j z j u : L ^ ~ z j Y < / I { u u u # { { { D r u u { * { { Y ~ / B y b & Y / I / l z j P . ",
"O f k e b k * ) y n j d j # ) / u w C u # { w u u r u p u : { D Y w u p l u 8 L U L i i z d g . ",
". f d j b e * u I z u r g 5 u b { w u u : u { w b u b u u % w w u C ) p h x * j I n N u h k f . ",
". s v b w 5 5 * b u c w - * : e c u b : * : u c w b u r 7 7 : u b w i t z 3 1 1 c u t z k h o . ",
"O . $ & 5 & * 4 : F { { w * : ; : % * : 7 : : % { { { { b * % 7 * 4 4 9 4 < & 1 : 7 ) I _ R . . ",
"o . ] / ^ 5 : : F { r w { : w { { { { { : # : { C D w u { % w { / I / / K / 1 1 : I ~ b N W A o ",
"o T H ( / U : / p p { r w u { D { { { C { # { b r b u C w w { { I I ! [ K _ I * I b i e n 0 W . ",
"o T j u j / : p p p w c w { D { w c u w { : w b u c p w p Z { Z c i z u b l U : c u c p h j g . ",
". f c j j j 1 j z i j u 1 I u b j z e j b : z k j u z d 1 Y h j j c u b i j u 1 u u n j f c r . ",
"o c r r z ; : : : 7 * 7 * * n u x e z j : 1 ; 3 : 7 ; 7 < ; n e u w b j z l 1 : 7 z r C r q O O ",
". + Y I _ ( ' ! _ : 3 y ^ ' J / h ; 8 I I K ] J _ < 1 y ^ ` K ` z 0 % ' ! _ _ ! I : 8 0 ` ` L + ",
"o L ` Y h t x l I _ : _ ^ _ t z _ 4 ^ ^ ^ j u z I ^ ; ( I ( e z I 1 I U _ t M N ' ( 3 _ L L d + ",
"+ E q k j x l ` n j = T k k h l z @ W h j h j R n k * Y j j y z k < _ k l k 0 ` h l < E d g v o ",
". s v a k d d g d f 2 = d d m d = 6 f f k f k s d d 6 - f d v a 2 = g f d k g k a g = - k f a . ",
"        . o . o . .   . . . . o .   . . . . . . . . . . . . . . . . . . . . . . . . .   .       "
};
